<svg id="Capa_1" enable-background="new 0 0 512 512" height="512" viewBox="0 0 512 512" width="512" xmlns="http://www.w3.org/2000/svg"><path d="m131.238 39.502h249.524v464.983h-249.524z" fill="#eb966d"/><path d="m362.727 39.502h18.035v464.983h-18.035z" fill="#e8834d"/><path d="m380.762 7.515h-249.524-31.987v31.987 464.983h31.987v-464.983h249.524v464.983h31.987v-464.983-31.987z" fill="#a95118"/><path d="m113.203 504.485h18.035v-464.983h-13.025c-2.767 0-5.01 2.243-5.01 5.01z" fill="#994916"/><path d="m394.714 7.515v31.987 464.983h18.035v-464.983-31.987z" fill="#994916"/><path d="m172.994 80.265h166.011v166.742h-166.011z" fill="#d56723"/><path d="m320.97 80.265h18.035v166.742h-18.035z" fill="#b6591e"/><path d="m172.994 296.98h166.011v166.742h-166.011z" fill="#d56723"/><path d="m320.97 296.98h18.035v166.742h-18.035z" fill="#b6591e"/><path d="m412.749 0h-313.498c-4.15 0-7.515 3.365-7.515 7.515v289.465c0 4.15 3.365 7.515 7.515 7.515s7.515-3.364 7.515-7.515v-281.951h298.469v481.941h-16.958v-101.59c0-4.15-3.365-7.515-7.515-7.515s-7.515 3.365-7.515 7.515v101.59h-234.494v-449.953h234.494v318.305c0 4.15 3.364 7.515 7.515 7.515 4.15 0 7.515-3.365 7.515-7.515v-325.82c0-4.15-3.365-7.515-7.515-7.515h-249.524c-4.15 0-7.515 3.364-7.515 7.515v457.469h-16.958v-169.932c0-4.15-3.365-7.515-7.515-7.515s-7.515 3.364-7.515 7.515v177.446c0 4.15 3.365 7.515 7.515 7.515h313.498c4.15 0 7.515-3.365 7.515-7.515v-496.97c.001-4.15-3.364-7.515-7.514-7.515z"/><path d="m172.995 167.6c-4.15 0-7.515 3.365-7.515 7.515v71.892c0 4.15 3.365 7.515 7.515 7.515h166.011c4.15 0 7.515-3.365 7.515-7.515v-166.742c0-4.15-3.365-7.515-7.515-7.515h-166.011c-4.15 0-7.515 3.364-7.515 7.515v64.791c0 4.15 3.365 7.515 7.515 7.515s7.515-3.365 7.515-7.515v-57.276h150.981v151.712h-150.982v-64.378c0-4.15-3.364-7.514-7.514-7.514z"/><path d="m165.48 463.722c0 4.15 3.365 7.515 7.515 7.515h166.011c4.15 0 7.515-3.364 7.515-7.515v-166.742c0-4.15-3.365-7.515-7.515-7.515h-166.011c-4.15 0-7.515 3.364-7.515 7.515zm15.029-159.227h150.981v151.712h-150.981z"/><path d="m366.318 271.994c0-7.822-6.364-14.186-14.186-14.186-5.06 0-9.498 2.672-12.01 6.671h-17.932c-4.15 0-7.515 3.364-7.515 7.515 0 4.15 3.365 7.515 7.515 7.515h17.932c2.512 3.999 6.949 6.671 12.01 6.671 7.822 0 14.186-6.364 14.186-14.186z"/></svg>