<svg id="Слой_1" height="512" viewBox="0 0 512 512" width="512" xmlns="http://www.w3.org/2000/svg" data-name="Слой 1"><path d="m44.38 8.66h295.41v466.68h-295.41z" fill="#ce7d41"/><path d="m339.79 484h-295.41a8.66 8.66 0 0 1 -8.66-8.66v-466.68a8.66 8.66 0 0 1 8.66-8.66h295.41a8.66 8.66 0 0 1 8.66 8.66v466.68a8.66 8.66 0 0 1 -8.66 8.66zm-286.79-17.32h278.1v-449.37h-278.1z" fill="#282828"/><path d="m83.82 48.79h216.54v426.55h-216.54z" fill="#fff"/><path d="m300.36 484h-216.54a8.66 8.66 0 0 1 -8.66-8.66v-426.55a8.66 8.66 0 0 1 8.66-8.66h216.54a8.66 8.66 0 0 1 8.64 8.66v426.55a8.66 8.66 0 0 1 -8.64 8.66zm-207.88-17.32h199.22v-409.23h-199.22z" fill="#282828"/><path d="m301.48 475.34 166.14 28v-494.22l-166.14 39.67z" fill="#ffbc6c"/><path d="m467.62 512a8.6 8.6 0 0 1 -1.44-.12l-166.18-28a8.66 8.66 0 0 1 -7.22-8.54v-426.55a8.66 8.66 0 0 1 6.65-8.42l166.18-39.67a8.66 8.66 0 0 1 10.67 8.42v494.22a8.66 8.66 0 0 1 -8.66 8.66zm-157.48-44 148.86 25.1v-473l-148.86 35.53z" fill="#282828"/><path d="m343.78 170.56a8.66 8.66 0 0 1 -8.66-8.66v-73.73a8.66 8.66 0 1 1 17.31 0v73.74a8.66 8.66 0 0 1 -8.65 8.65z" fill="#fff"/><circle cx="402.16" cy="263.89" fill="#ffd150" r="22.87"/><path d="m402.16 295.42a31.52 31.52 0 1 1 31.53-31.52 31.56 31.56 0 0 1 -31.53 31.52zm0-45.73a14.21 14.21 0 1 0 14.21 14.21 14.23 14.23 0 0 0 -14.21-14.22z" fill="#282828"/><path d="m392.83 263.89-36.4 14" fill="#ffd150"/><path d="m356.43 286.55a8.66 8.66 0 0 1 -3.11-16.74l36.4-14a8.66 8.66 0 0 1 6.22 16.19l-36.4 14a8.64 8.64 0 0 1 -3.11.55z" fill="#282828"/></svg>